<?xml version="1.0" standalone="no"?>
<!DOCTYPE svg PUBLIC "-//W3C//DTD SVG 20010904//EN"
 "http://www.w3.org/TR/2001/REC-SVG-20010904/DTD/svg10.dtd">
<svg version="1.0" xmlns="http://www.w3.org/2000/svg"
 width="908.000000pt" height="908.000000pt" viewBox="0 0 908.000000 908.000000"
 preserveAspectRatio="xMidYMid meet">
<metadata>
Created by potrace 1.14, written by Peter Selinger 2001-2017
</metadata>
<g transform="translate(0.000000,908.000000) scale(0.100000,-0.100000)"
fill="#000000" stroke="none">
<path d="M2899 8507 c-9 -8 -22 -29 -29 -46 -7 -17 -16 -31 -21 -31 -5 0 -9
-5 -9 -11 0 -10 -94 -173 -182 -316 -21 -34 -38 -67 -38 -73 0 -5 -4 -10 -10
-10 -5 0 -10 -5 -10 -10 0 -6 -18 -40 -40 -76 -22 -36 -40 -68 -40 -69 0 -2
-21 -39 -48 -82 -26 -43 -56 -95 -67 -115 -11 -21 -23 -38 -27 -38 -5 0 -8 -5
-8 -10 0 -6 -20 -45 -45 -87 l-44 -76 -123 -54 c-67 -29 -128 -53 -135 -53 -7
0 -13 -4 -13 -10 0 -5 -6 -10 -14 -10 -15 0 -64 -20 -238 -99 -26 -11 -50 -21
-53 -21 -2 0 -30 -12 -62 -26 -32 -14 -67 -29 -78 -34 -11 -4 -41 -17 -67 -29
-26 -12 -50 -21 -52 -21 -3 0 -35 -14 -73 -32 -37 -17 -74 -31 -80 -31 -7 0
-13 -4 -13 -9 0 -4 -5 -8 -12 -8 -10 0 -137 -52 -303 -125 -16 -7 -122 -52
-235 -100 -113 -48 -209 -90 -215 -93 -5 -4 -15 -7 -21 -8 -5 -1 -37 -14 -70
-29 -32 -15 -81 -36 -108 -47 -27 -10 -70 -28 -95 -39 -25 -11 -55 -24 -66
-29 -11 -5 -48 -21 -83 -36 -34 -15 -62 -28 -62 -28 0 -1 12 -27 26 -57 15
-30 27 -59 28 -65 1 -7 7 -18 12 -25 6 -8 16 -30 24 -49 7 -19 28 -67 46 -106
19 -39 34 -74 34 -77 0 -3 16 -41 36 -84 20 -43 61 -134 91 -203 52 -118 64
-145 118 -265 26 -58 120 -269 196 -440 29 -66 54 -121 55 -123 1 -2 21 6 45
16 79 35 162 70 279 117 63 26 129 52 145 60 17 7 71 29 120 49 96 40 111 46
165 69 19 8 76 31 125 52 50 20 104 43 122 51 17 7 33 14 36 14 2 0 26 10 53
22 27 12 51 23 54 23 3 0 14 6 25 12 11 6 22 11 25 11 3 0 18 5 33 11 39 15
46 14 46 -6 0 -10 2 -34 5 -53 3 -19 7 -57 10 -85 3 -27 10 -79 16 -115 5 -36
12 -82 14 -103 2 -21 6 -40 8 -43 5 -4 52 11 118 38 88 37 337 128 348 128 7
0 12 5 12 12 0 6 3 9 6 5 4 -3 23 1 43 9 20 9 59 23 86 32 28 9 52 19 55 22 3
3 37 16 75 29 39 13 86 30 105 39 41 18 37 17 75 27 17 4 35 11 40 15 6 3 51
21 100 39 50 18 106 39 125 48 19 8 43 17 52 18 10 2 32 10 50 18 18 8 78 31
133 52 55 20 111 41 125 47 14 6 34 13 44 15 11 2 24 7 30 12 6 5 29 14 51 21
22 7 45 17 52 22 7 5 17 7 23 3 5 -3 10 -2 10 3 0 5 15 13 33 17 17 4 34 8 37
9 32 8 31 22 -10 121 -5 11 -10 29 -13 40 -6 23 -74 220 -87 250 -5 11 -32 90
-60 175 -28 85 -55 164 -60 175 -5 11 -28 76 -51 145 -23 69 -46 131 -52 138
-5 6 -7 12 -4 12 3 0 -17 64 -45 143 -27 78 -51 147 -52 152 -2 6 -6 17 -9 25
-16 40 -49 138 -53 160 -3 13 -9 29 -13 35 -5 5 -12 24 -16 40 -5 17 -9 35
-11 40 -1 6 -12 34 -23 63 -12 28 -21 54 -21 57 0 3 -3 10 -5 17 -2 7 -16 47
-30 88 -14 41 -30 84 -35 95 -4 11 -11 29 -13 40 -3 11 -22 65 -41 120 -20 55
-39 111 -42 124 -3 14 -8 29 -12 35 -3 6 -7 16 -9 21 -1 6 -33 100 -71 210
-38 110 -71 206 -73 214 -4 11 -8 11 -20 -2z"/>
<path d="M9070 6668 c0 -6 -10 -25 -23 -42 -12 -17 -34 -52 -47 -78 -14 -27
-29 -48 -33 -48 -5 0 -5 -4 -2 -10 3 -5 1 -10 -4 -10 -6 0 -11 -4 -11 -10 0
-5 -16 -34 -35 -64 -19 -30 -35 -60 -35 -66 0 -5 -4 -10 -10 -10 -5 0 -10 -5
-10 -10 0 -6 -4 -16 -10 -23 -5 -7 -51 -75 -103 -152 -96 -145 -195 -278 -269
-361 -84 -95 -241 -247 -324 -314 -100 -80 -281 -196 -369 -237 -22 -10 -43
-22 -47 -28 -4 -5 -8 -7 -8 -3 0 4 -16 -1 -35 -12 -20 -11 -40 -20 -45 -20 -6
0 -29 -8 -53 -19 -23 -10 -55 -23 -72 -29 -16 -6 -39 -13 -50 -18 -31 -11 -47
-15 -85 -19 -19 -2 -37 -5 -40 -6 -3 -1 -9 0 -15 1 -5 1 -35 1 -65 1 -30 -1
-64 -1 -75 -1 -160 -1 -165 -1 -240 -1 -33 1 -69 1 -80 1 -160 -1 -165 -1
-240 -1 -33 1 -68 1 -77 1 -10 0 -79 -1 -153 -1 -74 0 -147 0 -162 0 -16 0
-107 0 -203 0 -96 0 -183 0 -192 0 -24 0 -174 0 -195 0 -15 0 -290 0 -373 0
-14 0 -104 0 -200 0 -96 0 -183 0 -192 0 -24 0 -174 0 -195 0 -10 0 -92 0
-183 0 -175 0 -196 0 -329 4 -66 2 -85 5 -87 17 -1 8 -23 74 -49 145 -25 72
-47 135 -49 142 -1 7 -5 16 -9 19 -4 4 -7 16 -7 26 0 23 -1 23 -79 -8 -36 -15
-70 -27 -76 -29 -5 -1 -23 -8 -40 -14 -16 -7 -91 -35 -165 -63 -74 -28 -146
-55 -160 -61 -14 -6 -29 -11 -35 -13 -5 -1 -46 -17 -90 -34 -44 -17 -141 -53
-215 -81 -74 -27 -142 -52 -150 -56 -8 -3 -17 -7 -20 -8 -3 -1 -14 -5 -25 -10
-23 -9 -62 -24 -355 -135 -118 -45 -219 -83 -225 -84 -14 -4 -45 -16 -80 -31
-16 -7 -55 -20 -85 -30 -30 -10 -59 -21 -65 -25 -5 -4 -22 -10 -37 -14 -26 -6
-28 -10 -29 -59 0 -28 -2 -185 -4 -347 -2 -162 -4 -295 -5 -295 0 0 -3 -175
-5 -390 -5 -440 -13 -1010 -21 -1665 -3 -245 -6 -563 -7 -707 -1 -145 -6 -263
-10 -263 -4 0 -3 -8 2 -19 6 -10 8 -21 5 -24 -3 -2 -6 -99 -7 -213 l-2 -209
541 -3 541 -2 12 52 c7 29 14 60 15 68 2 8 6 22 9 30 4 12 28 107 42 170 2 8
18 74 35 145 18 72 33 137 35 145 2 8 8 30 14 48 5 18 10 35 10 37 1 9 13 60
38 160 13 55 26 107 28 115 2 8 11 44 20 80 9 36 18 76 21 90 3 14 12 52 21
85 8 33 16 67 18 75 2 8 17 69 33 135 17 66 40 157 51 203 11 45 22 86 25 91
3 4 703 8 1556 8 1414 0 1552 -2 1560 -16 7 -14 20 -68 34 -146 2 -11 18 -87
36 -170 17 -82 34 -161 36 -175 3 -14 9 -41 14 -60 5 -19 12 -51 15 -70 3 -19
8 -42 10 -50 2 -8 7 -27 10 -42 3 -16 7 -38 10 -50 3 -13 7 -32 9 -43 2 -11 9
-41 15 -66 6 -25 12 -62 15 -82 2 -20 7 -40 9 -44 4 -6 27 -112 53 -238 2 -11
6 -31 9 -45 4 -14 8 -36 11 -50 2 -14 7 -37 10 -52 3 -15 6 -31 6 -35 0 -5 4
-17 8 -29 5 -11 11 -36 14 -55 3 -19 8 -45 11 -59 4 -14 9 -38 12 -55 7 -37 8
-43 18 -77 l7 -28 518 0 518 0 2 123 c1 67 4 210 6 317 4 195 4 209 3 233 0 6
2 118 5 247 8 345 15 686 22 1025 3 165 7 379 9 475 2 96 7 308 10 470 3 162
8 410 11 550 3 140 5 264 5 274 0 21 57 106 71 106 4 0 8 6 8 14 0 8 3 16 8
18 7 3 65 75 107 134 11 15 26 33 33 40 6 7 12 16 12 19 0 4 16 26 35 49 19
24 35 48 35 54 0 6 4 12 9 14 5 2 41 53 80 113 38 61 74 115 78 120 4 6 15 24
23 40 8 17 17 32 21 35 25 23 191 352 241 480 16 41 33 84 38 95 20 47 86 262
96 315 4 21 11 58 20 95 6 28 16 83 19 105 2 14 6 36 9 50 16 78 43 530 32
530 -3 0 -6 -5 -6 -12z"/>
</g>
</svg>
